#N canvas 521 22 1050 834 10;
#X obj 153 47 comport 9600;
#X msg 184 10 devices;
#X msg 261 10 close;
#X msg 113 10 open 1, f 7;
#X obj 125 182 tgl 15 0 empty empty empty 17 7 0 10 -262144 -1 -1 1
1;
#X obj 125 205 metro 1000;
#X obj 125 223 bng 15 250 50 0 empty empty empty 17 7 0 10 -262144
-1 -1;
#X obj 125 259 - 1;
#X obj 125 278 max 0;
#X obj 78 90 route 0 1 2;
#X obj 28 47 hradio 15 1 0 3 empty empty Fake_Arduino 0 -8 0 10 -262144
-1 -1 0;
#X floatatom 30 124 5 0 0 0 - - -, f 5;
#X obj 125 241 v charge;
#X obj 125 296 s charge;
#X obj 66 170 v charge;
#X obj 128 327 r charge;
#X floatatom 128 346 5 0 0 0 - - -, f 5;
#X obj 66 189 + 10;
#X obj 66 207 min 100;
#X obj 66 226 s charge;
#X obj 100 129 nbx 5 14 -1e+37 1e+37 0 1 empty empty empty 0 -8 0 10
-262144 -1 -1 100 256;
#X obj 161 131 nbx 5 14 -1e+37 1e+37 0 1 empty empty empty 0 -8 0 10
-262144 -1 -1 1000 256;
#X text 179 78 0 = CHARGE_UP 1 = RELEASE_START 2 = RELEASE_STOP;
#X floatatom 215 176 5 0 0 0 - - -, f 5;
#X obj 25 8 bng 15 250 50 0 empty empty empty 17 7 0 10 -262144 -1
-1;
#X connect 0 0 9 0;
#X connect 1 0 0 0;
#X connect 2 0 0 0;
#X connect 3 0 0 0;
#X connect 4 0 5 0;
#X connect 5 0 6 0;
#X connect 6 0 12 0;
#X connect 7 0 8 0;
#X connect 8 0 13 0;
#X connect 9 0 14 0;
#X connect 9 1 20 0;
#X connect 9 2 21 0;
#X connect 10 0 11 0;
#X connect 10 0 9 0;
#X connect 12 0 7 0;
#X connect 14 0 17 0;
#X connect 15 0 16 0;
#X connect 17 0 18 0;
#X connect 18 0 19 0;
#X connect 20 0 5 1;
#X connect 20 0 23 0;
#X connect 21 0 5 1;
#X connect 21 0 23 0;
#X connect 24 0 10 0;
