#N canvas 573 22 1347 1036 10;
#X obj 202 35 tgl 15 0 empty empty empty 17 7 0 10 -262144 -1 -1 0
1;
#X floatatom 260 34 5 0 0 0 - - -, f 5;
#X obj 230 189 route 0 1 2;
#X obj 230 163 pack f f;
#X obj 240 136 t f f;
#X obj 221 232 f, f 2;
#X obj 326 269 tgl 15 0 empty empty empty 17 7 0 10 -262144 -1 -1 0
1;
#X obj 293 288 spigot;
#X obj 293 210 unpack f;
#X msg 326 244 1, f 1;
#X msg 306 253 0, f 1;
#X obj 246 331 pack f f;
#X obj 255 258 bng 15 250 50 0 empty empty empty 17 7 0 10 -262144
-1 -1;
#X floatatom 246 383 2 0 0 0 - - -, f 2;
#X floatatom 267 383 2 0 0 0 - - -, f 2;
#X floatatom 288 383 2 0 0 0 - - -, f 2;
#X obj 246 357 route 0 1 2;
#X obj 293 309 t b f;
#X msg 254 98 42;
#X msg 294 97 30;
#X msg 232 98 0, f 1;
#N canvas 1241 111 641 620 fake_arduino 1;
#X obj 25 33 metro;
#X obj 20 117 hradio 16 1 0 12 empty empty empty 0 -8 0 10 -262144
-1 -1 4;
#X obj 24 59 f;
#X obj 64 58 + 1;
#X msg 21 182 0, f 1;
#X msg 62 182 1, f 1;
#X msg 103 182 2, f 1;
#X floatatom 128 233 5 0 0 0 - - -, f 5;
#X obj 8 8 inlet;
#X obj 63 7 inlet;
#X obj 128 263 outlet;
#X msg 38 182 10, f 2;
#X msg 79 182 21, f 2;
#X msg 122 182 32, f 2;
#X msg 145 182 0, f 1;
#X msg 162 182 20, f 2;
#X msg 186 182 1, f 2;
#X msg 210 182 31, f 2;
#X obj 24 86 mod 12;
#X msg 235 182 2, f 1;
#X msg 252 182 42;
#X obj 21 145 select 0 1 2 3 4 5 6 7 8 9 10, f 37;
#X connect 0 0 2 0;
#X connect 1 0 21 0;
#X connect 2 0 3 0;
#X connect 2 0 18 0;
#X connect 3 0 2 1;
#X connect 4 0 7 0;
#X connect 5 0 7 0;
#X connect 6 0 7 0;
#X connect 7 0 10 0;
#X connect 8 0 0 0;
#X connect 9 0 0 1;
#X connect 11 0 7 0;
#X connect 12 0 7 0;
#X connect 13 0 7 0;
#X connect 14 0 7 0;
#X connect 15 0 7 0;
#X connect 16 0 7 0;
#X connect 17 0 7 0;
#X connect 18 0 1 0;
#X connect 19 0 7 0;
#X connect 20 0 7 0;
#X connect 21 0 4 0;
#X connect 21 1 11 0;
#X connect 21 2 5 0;
#X connect 21 3 12 0;
#X connect 21 4 6 0;
#X connect 21 5 13 0;
#X connect 21 6 14 0;
#X connect 21 7 15 0;
#X connect 21 8 16 0;
#X connect 21 9 17 0;
#X connect 21 10 19 0;
#X connect 21 11 20 0;
#X restore 201 57 pd fake_arduino;
#X connect 0 0 21 0;
#X connect 1 0 21 1;
#X connect 2 0 5 1;
#X connect 2 0 9 0;
#X connect 2 1 5 1;
#X connect 2 1 9 0;
#X connect 2 2 5 1;
#X connect 2 2 9 0;
#X connect 2 3 8 0;
#X connect 3 0 2 0;
#X connect 4 0 3 0;
#X connect 4 1 3 1;
#X connect 5 0 11 0;
#X connect 6 0 7 1;
#X connect 7 0 17 0;
#X connect 8 0 7 0;
#X connect 9 0 6 0;
#X connect 10 0 6 0;
#X connect 11 0 16 0;
#X connect 12 0 5 0;
#X connect 12 0 10 0;
#X connect 16 0 13 0;
#X connect 16 1 14 0;
#X connect 16 2 15 0;
#X connect 17 0 12 0;
#X connect 17 1 11 1;
#X connect 18 0 4 0;
#X connect 19 0 4 0;
#X connect 20 0 4 0;
#X connect 21 0 4 0;
