#N canvas 438 378 658 337 8;
#X obj 85 56 comport 9600;
#X msg 116 16 devices;
#X msg 193 16 close;
#X obj 85 79 print;
#X msg 45 16 open 1, f 7;
#X connect 0 0 3 0;
#X connect 1 0 0 0;
#X connect 2 0 0 0;
#X connect 4 0 0 0;
